<?xml version="1.0" encoding="UTF-8" standalone="no"?>
<!-- Created with Inkscape (http://www.inkscape.org/) -->

<svg
   xmlns:dc="http://purl.org/dc/elements/1.1/"
   xmlns:cc="http://creativecommons.org/ns#"
   xmlns:rdf="http://www.w3.org/1999/02/22-rdf-syntax-ns#"
   xmlns:svg="http://www.w3.org/2000/svg"
   xmlns="http://www.w3.org/2000/svg"
   xmlns:sodipodi="http://sodipodi.sourceforge.net/DTD/sodipodi-0.dtd"
   xmlns:inkscape="http://www.inkscape.org/namespaces/inkscape"
   width="744.09448819"
   height="1052.3622047"
   id="svg3010"
   version="1.1"
   inkscape:version="0.91 r13725"
   sodipodi:docname="creuss.svg"
   inkscape:export-filename="C:\Users\filimonov\Dropbox\Twilight Imperium\TV\vector\export\creuss.png"
   inkscape:export-xdpi="159.68094"
   inkscape:export-ydpi="159.68094">
  <defs
     id="defs3012" />
  <sodipodi:namedview
     id="base"
     pagecolor="#ffffff"
     bordercolor="#666666"
     borderopacity="1.0"
     inkscape:pageopacity="0.0"
     inkscape:pageshadow="2"
     inkscape:zoom="2.8"
     inkscape:cx="74.218856"
     inkscape:cy="950.63312"
     inkscape:document-units="px"
     inkscape:current-layer="layer4"
     showgrid="false"
     inkscape:window-width="1596"
     inkscape:window-height="1028"
     inkscape:window-x="76"
     inkscape:window-y="-8"
     inkscape:window-maximized="1" />
  <metadata
     id="metadata3015">
    <rdf:RDF>
      <cc:Work
         rdf:about="">
        <dc:format>image/svg+xml</dc:format>
        <dc:type
           rdf:resource="http://purl.org/dc/dcmitype/StillImage" />
        <dc:title />
      </cc:Work>
    </rdf:RDF>
  </metadata>
  <g
     inkscape:label="img"
     inkscape:groupmode="layer"
     id="layer1" />
  <g
     inkscape:groupmode="layer"
     id="layer4"
     inkscape:label="base">
    <path
       style="fill:#077f9a;fill-opacity:1;fill-rule:evenodd;stroke:#000000;stroke-width:1px;stroke-linecap:butt;stroke-linejoin:miter;stroke-opacity:1"
       d="m 308.44252,135.06723 c 42.67857,-15.33285 66.87238,12.85792 5.47445,71.02361 -2.76786,2.85715 -3.89422,-1.375 -0.94779,-3.25 26.70431,-33.46682 25.61141,-60.28345 7.17613,-53.46492"
       id="path4163"
       inkscape:connector-curvature="0"
       sodipodi:nodetypes="cccc" />
    <path
       style="fill:none;fill-opacity:1;fill-rule:evenodd;stroke:#000000;stroke-width:1px;stroke-linecap:butt;stroke-linejoin:miter;stroke-opacity:1"
       d="m 306.34934,156.01873 c -11.86929,-30.17831 -52.2131,-40.58802 -52.2131,-40.58802 -4.46476,-2.06927 -6.83871,-5.75382 1.05874,-6.3023 2.05357,0.44643 44.13125,7.96727 65.21818,40.29215"
       id="path4153"
       inkscape:connector-curvature="0"
       sodipodi:nodetypes="cccc" />
    <path
       style="fill:#077f9a;fill-opacity:1;fill-rule:evenodd;stroke:#000000;stroke-width:1px;stroke-linecap:butt;stroke-linejoin:miter;stroke-opacity:1"
       d="m 286.75879,119.79937 22.04723,-22.878822 c 1.6415,-2.65165 6.04078,-2.41551 2.50525,4.024212 0,0 -8.65219,10.59636 -16.3546,23.85461"
       id="path4155"
       inkscape:connector-curvature="0"
       sodipodi:nodetypes="cccc" />
    <path
       style="fill:none;fill-rule:evenodd;stroke:#000000;stroke-width:1px;stroke-linecap:butt;stroke-linejoin:miter;stroke-opacity:1"
       d="m 280.77031,127.45627 c -32.67857,48.03571 21.48459,60.37247 52.36475,26.93629"
       id="path4157"
       inkscape:connector-curvature="0"
       sodipodi:nodetypes="cc" />
    <path
       style="fill:none;fill-rule:evenodd;stroke:#000000;stroke-width:1px;stroke-linecap:butt;stroke-linejoin:miter;stroke-opacity:1"
       d="m 289.69887,133.52771 c -10.71429,24.28571 5,32.76786 30.71429,15.80357"
       id="path4159"
       inkscape:connector-curvature="0"
       sodipodi:nodetypes="cc" />
    <path
       style="fill:#077f9a;fill-opacity:1;fill-rule:evenodd;stroke:#000000;stroke-width:1px;stroke-linecap:butt;stroke-linejoin:miter;stroke-opacity:1"
       d="m 345.30298,134.98877 c 5.36643,-8.7757 12.49289,-32.16453 12.49289,-32.16453 1.8309,-6.313452 -1.62138,-6.657902 -3.13661,-1.16519 0,0 -8.75154,23.14897 -15.4438,30.66198"
       id="path4161"
       inkscape:connector-curvature="0"
       sodipodi:nodetypes="cccc" />
    <path
       style="fill:#077f9a;fill-opacity:1;fill-rule:evenodd;stroke:#000000;stroke-width:1px;stroke-linecap:butt;stroke-linejoin:miter;stroke-opacity:1"
       d="m 324.39158,164.72085 c 2.14658,40.53237 -26.85199,44.68394 -73.06646,-3.42458 0,0 -7.28662,-8.05321 1.93102,-3.00245 9.55444,5.82297 51.48297,34.89389 56.04414,13.53881 0,0 10.34233,-4.3687 15.0913,-7.11178 z"
       id="path4165"
       inkscape:connector-curvature="0"
       sodipodi:nodetypes="cccsc" />
    <path
       style="fill:#077f9a;fill-opacity:1;fill-rule:evenodd;stroke:#000000;stroke-width:1px;stroke-linecap:butt;stroke-linejoin:miter;stroke-opacity:1"
       d="m 268.6673,199.7011 c 8.49669,-15.9631 15.34882,-25.47812 15.08096,-26.59419 -1.65178,-0.40178 -5.65067,-2.24953 -6.76437,-3.39843 -1.13642,1.07329 -11.60593,22.48859 -11.47966,29.55966 0.28056,3.96183 2.41815,1.72706 3.16307,0.43296 z"
       id="path4167"
       inkscape:connector-curvature="0"
       sodipodi:nodetypes="ccccc" />
    <path
       style="fill:none;fill-rule:evenodd;stroke:#000000;stroke-width:1px;stroke-linecap:butt;stroke-linejoin:miter;stroke-opacity:1"
       d="m 297.19777,141.62631 c 0,0 -7.35533,8.19217 -9.27892,11.89993"
       id="path4169"
       inkscape:connector-curvature="0"
       sodipodi:nodetypes="cc" />
    <path
       style="fill:none;fill-rule:evenodd;stroke:#000000;stroke-width:1px;stroke-linecap:butt;stroke-linejoin:miter;stroke-opacity:1"
       d="m 305.78669,153.84903 c 0,0 -7.08004,1.46665 -10.01858,4.17322"
       id="path4171"
       inkscape:connector-curvature="0"
       sodipodi:nodetypes="cc" />
    <path
       style="fill:#077f9a;fill-opacity:1;stroke:#000000;stroke-width:0.12626907;stroke-linejoin:round;stroke-miterlimit:4;stroke-dasharray:none;stroke-opacity:1"
       d="m 290.89129,172.56111 c -10.4823,-0.92471 -17.40525,-6.15302 -19.27163,-14.55422 -0.41299,-1.85902 -0.47307,-5.67169 -0.12679,-8.0467 0.63214,-4.33561 2.20694,-8.92695 4.74329,-13.82912 1.64844,-3.18604 4.52193,-7.88607 4.82254,-7.88799 0.28357,-0.002 4.88292,3.27241 6.95211,4.94913 l 0.90759,0.73545 -0.37966,0.91376 c -1.01246,2.43678 -2.00222,5.75801 -2.45482,8.23736 -0.32474,1.77892 -0.38452,5.06676 -0.12079,6.64394 1.161,6.94327 6.71235,10.11751 15.19396,8.68784 5.39967,-0.91018 11.90345,-3.68542 18.35421,-7.83195 1.53241,-0.98504 2.68891,-1.3864 4.6797,-1.6241 2.66487,-0.31818 4.79061,0.35498 6.31272,1.99904 0.75231,0.81258 1.14186,1.43846 1.602,2.57386 0.27094,0.66857 0.27876,0.74944 0.0991,1.02367 -0.28105,0.42894 -3.71564,3.6684 -5.20679,4.91097 -8.64545,7.20426 -18.29088,11.58791 -28.40431,12.90919 -1.83958,0.24033 -5.97488,0.34227 -7.70241,0.18987 z"
       id="path4173"
       inkscape:connector-curvature="0" />
    <path
       style="fill:#077f9a;fill-opacity:1;stroke:#000000;stroke-width:0.12626907;stroke-linejoin:round;stroke-miterlimit:4;stroke-dasharray:none;stroke-opacity:1"
       d="m 294.29145,157.32885 c -2.1957,-0.46949 -4.27371,-1.72354 -5.38683,-3.25087 l -0.3594,-0.49314 0.33443,-0.58015 c 0.99156,-1.72009 4.47383,-6.15385 7.72191,-9.83185 l 0.81065,-0.91794 1.07476,1.35596 c 1.42836,1.80207 2.62124,3.53226 3.82576,5.54897 0.97559,1.63344 2.26965,4.09746 2.26965,4.32165 0,0.063 -0.20327,0.15265 -0.4517,0.19925 -0.97401,0.18273 -4.30634,1.35397 -5.57101,1.95809 -0.73353,0.3504 -1.75054,0.92116 -2.26002,1.26835 -0.50947,0.3472 -0.97087,0.62664 -1.02532,0.62097 -0.0544,-0.006 -0.49674,-0.0953 -0.98288,-0.19929 z"
       id="path4175"
       inkscape:connector-curvature="0" />
    <path
       style="fill:#077f9a;fill-opacity:1;stroke:#000000;stroke-width:0.08928572;stroke-linejoin:round;stroke-miterlimit:4;stroke-dasharray:none;stroke-opacity:1"
       d="m 306.32451,154.55561 c -4.67189,-11.01132 -14.0399,-20.9786 -27.01408,-28.74217 -7.34298,-4.39394 -16.17508,-8.31322 -23.73176,-10.53107 -1.03543,-0.3039 -1.60893,-0.52922 -2.19269,-0.8615 -1.74287,-0.99204 -2.82555,-2.11678 -2.82555,-2.93532 0,-0.39598 0.52598,-0.87838 1.29216,-1.1851 0.64961,-0.26006 2.38447,-0.59122 3.0972,-0.59122 0.77411,0 5.32442,1.06474 8.82493,2.06497 17.84173,5.09806 33.71296,13.76765 44.97896,24.56955 2.42816,2.32814 3.95799,4.00191 6.49425,7.1053 2.07401,2.53777 4.31635,5.50894 4.32764,5.73424 0.004,0.078 -2.48525,1.61844 -4.05978,2.51238 -2.36422,1.34229 -5.51919,2.86499 -7.63393,3.68442 -0.41741,0.16174 -0.82112,0.31922 -0.89714,0.34995 -0.10851,0.0439 -0.25036,-0.20846 -0.66021,-1.17443 z"
       id="path4179"
       inkscape:connector-curvature="0" />
  </g>
</svg>
