<?xml version="1.0" encoding="UTF-8" standalone="no"?>
<!-- Created with Inkscape (http://www.inkscape.org/) -->

<svg
   xmlns:dc="http://purl.org/dc/elements/1.1/"
   xmlns:cc="http://creativecommons.org/ns#"
   xmlns:rdf="http://www.w3.org/1999/02/22-rdf-syntax-ns#"
   xmlns:svg="http://www.w3.org/2000/svg"
   xmlns="http://www.w3.org/2000/svg"
   xmlns:xlink="http://www.w3.org/1999/xlink"
   xmlns:sodipodi="http://sodipodi.sourceforge.net/DTD/sodipodi-0.dtd"
   xmlns:inkscape="http://www.inkscape.org/namespaces/inkscape"
   width="744.09448819"
   height="1052.3622047"
   id="svg3010"
   version="1.1"
   inkscape:version="0.91 r13725"
   sodipodi:docname="hacan.svg">
  <defs
     id="defs3012">
    <linearGradient
       id="linearGradient3886">
      <stop
         id="stop3888"
         offset="0"
         style="stop-color:#d0b70c;stop-opacity:1;" />
      <stop
         style="stop-color:#d0450c;stop-opacity:1;"
         offset="1"
         id="stop3890" />
    </linearGradient>
    <linearGradient
       id="linearGradient3862">
      <stop
         style="stop-color:#d0b50c;stop-opacity:0.24705882;"
         offset="0"
         id="stop3882" />
      <stop
         id="stop3884"
         offset="1"
         style="stop-color:#d0450c;stop-opacity:0.12156863;" />
    </linearGradient>
    <linearGradient
       inkscape:collect="always"
       xlink:href="#linearGradient3886"
       id="linearGradient3902"
       x1="313.07144"
       y1="328.43362"
       x2="339.60715"
       y2="328.43362"
       gradientUnits="userSpaceOnUse"
       spreadMethod="pad" />
    <linearGradient
       inkscape:collect="always"
       xlink:href="#linearGradient3886"
       id="linearGradient3924"
       x1="313.07144"
       y1="328.43362"
       x2="339.60715"
       y2="328.43362"
       gradientUnits="userSpaceOnUse" />
    <linearGradient
       inkscape:collect="always"
       xlink:href="#linearGradient3886"
       id="linearGradient3932"
       x1="313.07144"
       y1="328.43362"
       x2="339.60715"
       y2="328.43362"
       gradientUnits="userSpaceOnUse" />
  </defs>
  <sodipodi:namedview
     id="base"
     pagecolor="#ffffff"
     bordercolor="#666666"
     borderopacity="1.0"
     inkscape:pageopacity="0.0"
     inkscape:pageshadow="2"
     inkscape:zoom="5.6"
     inkscape:cx="330.92599"
     inkscape:cy="762.9555"
     inkscape:document-units="px"
     inkscape:current-layer="layer1"
     showgrid="false"
     inkscape:window-width="1835"
     inkscape:window-height="1058"
     inkscape:window-x="77"
     inkscape:window-y="-8"
     inkscape:window-maximized="1" />
  <metadata
     id="metadata3015">
    <rdf:RDF>
      <cc:Work
         rdf:about="">
        <dc:format>image/svg+xml</dc:format>
        <dc:type
           rdf:resource="http://purl.org/dc/dcmitype/StillImage" />
        <dc:title />
      </cc:Work>
    </rdf:RDF>
  </metadata>
  <g
     inkscape:label="img"
     inkscape:groupmode="layer"
     id="layer1"
     style="display:inline" />
  <g
     inkscape:groupmode="layer"
     id="layer4"
     inkscape:label="base">
    <path
       sodipodi:type="arc"
       style="fill:url(#linearGradient3902);stroke:#000000;stroke-width:1;stroke-miterlimit:4;stroke-opacity:1;stroke-dasharray:none;fill-opacity:1;stroke-linejoin:round"
       id="path3057"
       sodipodi:cx="326.33929"
       sodipodi:cy="328.43362"
       sodipodi:rx="12.767858"
       sodipodi:ry="13.214286"
       d="m 339.10715,328.43362 a 12.767858,13.214286 0 1 1 -25.53571,0 12.767858,13.214286 0 1 1 25.53571,0 z"
       transform="matrix(1.2107055,0,0,1.1022358,-67.065062,-36.077657)" />
    <path
       sodipodi:type="arc"
       style="fill:url(#linearGradient3932);stroke:#000000;stroke-width:1;stroke-miterlimit:4;stroke-opacity:1;stroke-dasharray:none;fill-opacity:1;stroke-linejoin:round"
       id="path3057-1"
       sodipodi:cx="326.33929"
       sodipodi:cy="328.43362"
       sodipodi:rx="12.767858"
       sodipodi:ry="13.214286"
       d="m 339.10715,328.43362 a 12.767858,13.214286 0 1 1 -25.53571,0 12.767858,13.214286 0 1 1 25.53571,0 z"
       transform="matrix(1.1841735,0,0,1.0563299,-71.620911,-73.411351)" />
    <path
       sodipodi:type="arc"
       style="fill:url(#linearGradient3924);stroke:#000000;stroke-width:1;stroke-miterlimit:4;stroke-opacity:1;stroke-dasharray:none;fill-opacity:1;stroke-linejoin:round"
       id="path3057-7"
       sodipodi:cx="326.33929"
       sodipodi:cy="328.43362"
       sodipodi:rx="12.767858"
       sodipodi:ry="13.214286"
       d="m 339.10715,328.43362 a 12.767858,13.214286 0 1 1 -25.53571,0 12.767858,13.214286 0 1 1 25.53571,0 z"
       transform="matrix(1.1626442,0,0,1.1030955,-12.005765,-73.502889)" />
    <path
       style="fill:#27190e;stroke:#000000;stroke-width:1px;stroke-linecap:butt;stroke-linejoin:round;stroke-opacity:1;fill-opacity:1"
       d="m 359.10714,250.57647 c -8.65394,-0.99732 -29.64285,30.17856 -25,41.60714 7.14286,0.71429 12.5,-10.53571 12.5,-10.53571 -1.42857,-4.46429 -7.85714,3.03571 -7.85714,3.03571 0.71429,-7.85715 26.96429,-32.5 20.35714,-34.10714 z"
       id="path3084"
       inkscape:connector-curvature="0"
       sodipodi:nodetypes="ccccc" />
    <path
       style="fill:#2f1e11;stroke:#000000;stroke-width:1px;stroke-linecap:butt;stroke-linejoin:round;stroke-opacity:1;fill-opacity:1"
       d="m 285.53571,299.68361 c 2.14286,-2.67857 30.53572,2.14286 40.53572,1.25 1.36575,-2.16266 -8.02302,-1.99307 -6.60714,-5 3.34799,-2.23663 12.32142,-1.78571 15.89285,2.5 5.35714,10.35714 -54.10714,9.46429 -49.82143,1.25 z"
       id="path3086"
       inkscape:connector-curvature="0"
       sodipodi:nodetypes="ccccc" />
    <path
       style="fill:#2e1c0f;stroke:#000000;stroke-width:1px;stroke-linecap:butt;stroke-linejoin:round;stroke-opacity:1;fill-opacity:1"
       d="m 345.21963,311.03648 c -5.98214,-3.75 -6.22679,-11.54388 -4.26251,-15.20459 19.06663,0.37881 29.01125,39.82706 26.23333,39.95333 -3.78807,2.52538 -18.56155,-30.43085 -18.56155,-30.43085 -3.48214,-2.58929 -1.17713,4.69997 -3.40927,5.68211 z"
       id="path3088"
       inkscape:connector-curvature="0"
       sodipodi:nodetypes="ccccc" />
  </g>
</svg>
