<?xml version="1.0" encoding="UTF-8" standalone="no"?>
<!-- Created with Inkscape (http://www.inkscape.org/) -->

<svg
   width="38.301373mm"
   height="47.07309mm"
   viewBox="0 0 38.301373 47.07309"
   version="1.1"
   id="svg8773"
   inkscape:version="1.2 (dc2aedaf03, 2022-05-15)"
   sodipodi:docname="naaz-rokha.svg"
   xmlns:inkscape="http://www.inkscape.org/namespaces/inkscape"
   xmlns:sodipodi="http://sodipodi.sourceforge.net/DTD/sodipodi-0.dtd"
   xmlns="http://www.w3.org/2000/svg"
   xmlns:svg="http://www.w3.org/2000/svg">
  <sodipodi:namedview
     id="namedview8775"
     pagecolor="#ffffff"
     bordercolor="#000000"
     borderopacity="0.25"
     inkscape:showpageshadow="2"
     inkscape:pageopacity="0.0"
     inkscape:pagecheckerboard="0"
     inkscape:deskcolor="#d1d1d1"
     inkscape:document-units="mm"
     showgrid="false"
     inkscape:zoom="0.2102413"
     inkscape:cx="71.34659"
     inkscape:cy="90.372348"
     inkscape:window-width="1920"
     inkscape:window-height="1129"
     inkscape:window-x="-8"
     inkscape:window-y="-8"
     inkscape:window-maximized="1"
     inkscape:current-layer="layer1" />
  <defs
     id="defs8770">
    <clipPath
       clipPathUnits="userSpaceOnUse"
       id="clipPath2536">
      <path
         d="m 278.877,100.053 43.03,-24.943 -17.526,27.899 24.525,39.023 24.517,-39.023 -16.782,-26.72 39.403,26.657 -15.713,33.238 c -15.015,2.438 -26.465,15.45 -26.465,31.153 v 0 c 0,5.775 1.551,11.188 4.252,15.839 v 0 l -9.212,19.494 z"
         id="path2534" />
    </clipPath>
    <radialGradient
       fx="0"
       fy="0"
       cx="0"
       cy="0"
       r="1"
       gradientUnits="userSpaceOnUse"
       gradientTransform="matrix(51.005711,-82.175865,-82.175865,-51.005711,323.57834,179.91945)"
       spreadMethod="pad"
       id="radialGradient2552">
      <stop
         style="stop-opacity:1;stop-color:#8ad482"
         offset="0"
         id="stop2542" />
      <stop
         style="stop-opacity:1;stop-color:#8ad482"
         offset="0.1800949"
         id="stop2544" />
      <stop
         style="stop-opacity:1;stop-color:#5c9e5b"
         offset="0.378071"
         id="stop2546" />
      <stop
         style="stop-opacity:1;stop-color:#33623d"
         offset="0.744485"
         id="stop2548" />
      <stop
         style="stop-opacity:1;stop-color:#363d38"
         offset="1"
         id="stop2550" />
    </radialGradient>
    <clipPath
       clipPathUnits="userSpaceOnUse"
       id="clipPath2562">
      <path
         d="M 0,1062.992 H 1228.045 V 0 H 0 Z"
         id="path2560" />
    </clipPath>
    <clipPath
       clipPathUnits="userSpaceOnUse"
       id="clipPath2574">
      <path
         d="m 346.005,167.899 c 0,-10.724 8.694,-19.418 19.418,-19.418 v 0 c 10.726,0 19.42,8.694 19.42,19.418 v 0 c 0,10.726 -8.694,19.42 -19.42,19.42 v 0 c -10.724,0 -19.418,-8.694 -19.418,-19.42"
         id="path2572" />
    </clipPath>
    <radialGradient
       fx="0"
       fy="0"
       cx="0"
       cy="0"
       r="1"
       gradientUnits="userSpaceOnUse"
       gradientTransform="matrix(50.733006,-81.736504,-81.736504,-50.733006,323.57834,179.74796)"
       spreadMethod="pad"
       id="radialGradient2590">
      <stop
         style="stop-opacity:1;stop-color:#8ad482"
         offset="0"
         id="stop2580" />
      <stop
         style="stop-opacity:1;stop-color:#8ad482"
         offset="0.1800949"
         id="stop2582" />
      <stop
         style="stop-opacity:1;stop-color:#5c9e5b"
         offset="0.378071"
         id="stop2584" />
      <stop
         style="stop-opacity:1;stop-color:#33623d"
         offset="0.744485"
         id="stop2586" />
      <stop
         style="stop-opacity:1;stop-color:#363d38"
         offset="1"
         id="stop2588" />
    </radialGradient>
    <clipPath
       clipPathUnits="userSpaceOnUse"
       id="clipPath2600">
      <path
         d="M 0,1062.992 H 1228.045 V 0 H 0 Z"
         id="path2598" />
    </clipPath>
  </defs>
  <g
     inkscape:label="Ebene 1"
     inkscape:groupmode="layer"
     id="layer1"
     transform="translate(-85.302703,-124.96346)">
    <g
       id="g2530"
       transform="matrix(0.35277777,0,0,-0.35277777,-12.558124,197.381)">
      <g
         id="g2532"
         clip-path="url(#clipPath2536)">
        <g
           id="g2538">
          <g
             id="g2540">
            <path
               d="m 278.877,100.053 43.03,-24.943 -17.526,27.899 24.525,39.023 24.517,-39.023 -16.782,-26.72 39.403,26.657 -15.713,33.238 c -15.015,2.438 -26.465,15.45 -26.465,31.153 v 0 c 0,5.775 1.551,11.188 4.252,15.839 v 0 l -9.212,19.494 z"
               style="fill:url(#radialGradient2552);stroke:none"
               id="path2554" />
          </g>
        </g>
      </g>
    </g>
    <g
       id="g2556"
       transform="matrix(0.35277777,0,0,-0.35277777,-12.558124,197.381)">
      <g
         id="g2558"
         clip-path="url(#clipPath2562)">
        <g
           id="g2564"
           transform="translate(336.6401,76.2893)">
          <path
             d="M 0,0 16.782,26.719 -7.734,65.742 -32.259,26.719 -14.733,-1.179 -57.764,23.764 -7.734,126.38 1.478,106.887 C -1.224,102.236 -2.774,96.823 -2.774,91.048 -2.774,75.344 8.677,62.333 23.691,59.894 L 39.404,26.656 Z"
             style="fill:none;stroke:#735e64;stroke-width:2.258;stroke-linecap:butt;stroke-linejoin:miter;stroke-miterlimit:10;stroke-dasharray:none;stroke-opacity:1"
             id="path2566" />
        </g>
      </g>
    </g>
    <g
       id="g2568"
       transform="matrix(0.35277777,0,0,-0.35277777,-12.558124,197.381)">
      <g
         id="g2570"
         clip-path="url(#clipPath2574)">
        <g
           id="g2576">
          <g
             id="g2578">
            <path
               d="m 346.005,167.899 c 0,-10.724 8.694,-19.418 19.418,-19.418 v 0 c 10.726,0 19.42,8.694 19.42,19.418 v 0 c 0,10.726 -8.694,19.42 -19.42,19.42 v 0 c -10.724,0 -19.418,-8.694 -19.418,-19.42"
               style="fill:url(#radialGradient2590);stroke:none"
               id="path2592" />
          </g>
        </g>
      </g>
    </g>
    <g
       id="g2594"
       transform="matrix(0.35277777,0,0,-0.35277777,-12.558124,197.381)">
      <g
         id="g2596"
         clip-path="url(#clipPath2600)">
        <g
           id="g2602"
           transform="translate(384.8426,167.8998)">
          <path
             d="m 0,0 c 0,-10.725 -8.694,-19.419 -19.419,-19.419 -10.724,0 -19.418,8.694 -19.418,19.419 0,10.725 8.694,19.419 19.418,19.419 C -8.694,19.419 0,10.725 0,0 Z"
             style="fill:none;stroke:#735e64;stroke-width:2.258;stroke-linecap:butt;stroke-linejoin:miter;stroke-miterlimit:10;stroke-dasharray:none;stroke-opacity:1"
             id="path2604" />
        </g>
      </g>
    </g>
  </g>
</svg>
