<?xml version="1.0" encoding="UTF-8" standalone="no"?>
<!-- Created with Inkscape (http://www.inkscape.org/) -->

<svg
   xmlns:dc="http://purl.org/dc/elements/1.1/"
   xmlns:cc="http://creativecommons.org/ns#"
   xmlns:rdf="http://www.w3.org/1999/02/22-rdf-syntax-ns#"
   xmlns:svg="http://www.w3.org/2000/svg"
   xmlns="http://www.w3.org/2000/svg"
   xmlns:sodipodi="http://sodipodi.sourceforge.net/DTD/sodipodi-0.dtd"
   xmlns:inkscape="http://www.inkscape.org/namespaces/inkscape"
   width="744.09448819"
   height="1052.3622047"
   id="svg2"
   version="1.1"
   inkscape:version="0.91 r13725"
   sodipodi:docname="sardakk norr.svg"
   inkscape:export-filename="C:\Users\filimonov\Dropbox\Twilight Imperium\TV\vector\export\sardakk norr.png"
   inkscape:export-xdpi="209.04625"
   inkscape:export-ydpi="209.04625">
  <defs
     id="defs4" />
  <sodipodi:namedview
     id="base"
     pagecolor="#ffffff"
     bordercolor="#666666"
     borderopacity="1.0"
     inkscape:pageopacity="0.0"
     inkscape:pageshadow="2"
     inkscape:zoom="3.959798"
     inkscape:cx="163.5237"
     inkscape:cy="906.65792"
     inkscape:document-units="px"
     inkscape:current-layer="layer2"
     showgrid="false"
     inkscape:window-width="1596"
     inkscape:window-height="1028"
     inkscape:window-x="76"
     inkscape:window-y="-8"
     inkscape:window-maximized="1" />
  <metadata
     id="metadata7">
    <rdf:RDF>
      <cc:Work
         rdf:about="">
        <dc:format>image/svg+xml</dc:format>
        <dc:type
           rdf:resource="http://purl.org/dc/dcmitype/StillImage" />
        <dc:title />
      </cc:Work>
    </rdf:RDF>
  </metadata>
  <g
     inkscape:label="img"
     inkscape:groupmode="layer"
     id="layer1"
     style="display:inline" />
  <g
     inkscape:groupmode="layer"
     id="layer2"
     inkscape:label="base"
     style="display:inline">
    <path
       style="fill:#281c1e;stroke:#000000;stroke-width:1px;stroke-linecap:butt;stroke-linejoin:round;stroke-opacity:1;fill-opacity:1"
       d="m 225.01148,128.83022 0,17.67767 c 0,0 -15.5311,3.15672 -17.04633,18.43528 l -12.50063,0 0,5.42957 11.74302,0 c 2.90419,19.57171 18.43529,21.2132 18.43529,21.2132 l 0,22.34963 5.93464,0 0,-22.22336 c 0,0 17.04633,-3.40926 18.05648,-21.33947 l 11.61675,0 0,-6.18718 -11.86929,0 c -2.39911,-18.30901 -17.17259,-17.80394 -17.17259,-17.80394 l 0,-17.5514 z"
       id="path2997"
       inkscape:connector-curvature="0"
       sodipodi:nodetypes="ccccccccccccccccc" />
    <path
       sodipodi:type="arc"
       style="fill:#b8421a;stroke:#000000;stroke-width:1;stroke-miterlimit:4;stroke-opacity:1;stroke-dasharray:none;fill-opacity:1;stroke-linejoin:round"
       id="path3003"
       sodipodi:cx="223.87506"
       sodipodi:cy="170.24648"
       sodipodi:rx="14.268405"
       sodipodi:ry="14.520943"
       d="m 238.14347,170.24648 a 14.268405,14.520943 0 1 1 -28.53681,0 14.268405,14.520943 0 1 1 28.53681,0 z"
       transform="matrix(1.0893615,0,0,1.1138942,-15.018173,-20.842198)" />
  </g>
  <g
     inkscape:groupmode="layer"
     id="layer3"
     inkscape:label="Рога">
    <path
       style="fill:#3d2a25;stroke:#000000;stroke-width:1px;stroke-linecap:butt;stroke-linejoin:round;stroke-opacity:1;fill-opacity:1"
       d="m 187.88838,147.51804 c 16.16244,8.83884 28.28426,12.50063 40.65863,13.00571 16.03617,-0.25254 27.14786,-7.19733 41.79507,-14.39467 0,0 -5.68211,12.12183 -34.47146,21.08694 0,0 17.02059,21.02487 14.39467,33.96638 -4.54568,-5.05077 -12.32773,-23.23266 -22.60217,-23.48605 -8.71256,1.13642 -23.73857,21.84454 -23.73857,21.84454 -0.37881,-11.74302 16.66751,-32.07234 16.66751,-32.07234 0,0 -31.8198,-13.76332 -32.70368,-19.95051 z"
       id="path3008"
       inkscape:connector-curvature="0"
       sodipodi:nodetypes="ccccccccc" />
  </g>
</svg>
