<?xml version="1.0" encoding="UTF-8" standalone="no"?>
<!-- Created with Inkscape (http://www.inkscape.org/) -->

<svg
   width="98.229668"
   height="100"
   id="svg3010"
   viewBox="0 0 100 100"
   version="1.1"
   inkscape:version="1.1.2 (b8e25be833, 2022-02-05)"
   sodipodi:docname="ghosts of creuss.svg"
   inkscape:export-filename="C:\Users\filimonov\Dropbox\Twilight Imperium\TV\vector\export\creuss.png"
   inkscape:export-xdpi="159.68094"
   inkscape:export-ydpi="159.68094"
   xmlns:inkscape="http://www.inkscape.org/namespaces/inkscape"
   xmlns:sodipodi="http://sodipodi.sourceforge.net/DTD/sodipodi-0.dtd"
   xmlns="http://www.w3.org/2000/svg"
   xmlns:svg="http://www.w3.org/2000/svg"
   xmlns:rdf="http://www.w3.org/1999/02/22-rdf-syntax-ns#"
   xmlns:cc="http://creativecommons.org/ns#"
   xmlns:dc="http://purl.org/dc/elements/1.1/">
  <defs
     id="defs3012" />
  <sodipodi:namedview
     id="base"
     pagecolor="#ffffff"
     bordercolor="#666666"
     borderopacity="1.0"
     inkscape:pageopacity="0.0"
     inkscape:pageshadow="2"
     inkscape:zoom="2.8"
     inkscape:cx="-8.3928571"
     inkscape:cy="37.142857"
     inkscape:document-units="px"
     inkscape:current-layer="layer4"
     showgrid="false"
     inkscape:window-width="1920"
     inkscape:window-height="1137"
     inkscape:window-x="-8"
     inkscape:window-y="-8"
     inkscape:window-maximized="1"
     inkscape:pagecheckerboard="0" />
  <metadata
     id="metadata3015">
    <rdf:RDF>
      <cc:Work
         rdf:about="">
        <dc:format>image/svg+xml</dc:format>
        <dc:type
           rdf:resource="http://purl.org/dc/dcmitype/StillImage" />
        <dc:title />
      </cc:Work>
    </rdf:RDF>
  </metadata>
  <g
     inkscape:label="img"
     inkscape:groupmode="layer"
     id="layer1"
     transform="translate(-248.08967,-94.828903)" />
  <g
     inkscape:groupmode="layer"
     id="layer4"
     inkscape:label="base"
     transform="translate(-248.08967,-94.828903)">
    <path
       style="fill:#077f9a;fill-opacity:1;fill-rule:evenodd;stroke:#000000;stroke-width:0.887116px;stroke-linecap:butt;stroke-linejoin:miter;stroke-opacity:1"
       d="m 301.62965,130.52497 c 37.86085,-13.60202 59.32356,11.40647 4.85647,63.00618 -2.45541,2.53463 -3.45462,-1.21978 -0.8408,-2.88313 23.68983,-29.68895 22.7203,-53.47841 6.36606,-47.42958"
       id="path4163"
       inkscape:connector-curvature="0"
       sodipodi:nodetypes="cccc" />
    <path
       style="fill:none;fill-opacity:1;fill-rule:evenodd;stroke:#000000;stroke-width:0.887116px;stroke-linecap:butt;stroke-linejoin:miter;stroke-opacity:1"
       d="m 299.77276,149.11138 c -10.52944,-26.77166 -46.31908,-36.00628 -46.31908,-36.00628 -3.96076,-1.83569 -6.06673,-5.10431 0.93922,-5.59087 1.82176,0.39603 39.14954,7.06789 57.8561,35.74381"
       id="path4153"
       inkscape:connector-curvature="0"
       sodipodi:nodetypes="cccc" />
    <path
       style="fill:#077f9a;fill-opacity:1;fill-rule:evenodd;stroke:#000000;stroke-width:0.887116px;stroke-linecap:butt;stroke-linejoin:miter;stroke-opacity:1"
       d="m 282.39367,116.9806 19.55845,-20.296165 c 1.4562,-2.352321 5.35887,-2.142838 2.22245,3.569945 0,0 -7.6755,9.4002 -14.50843,21.1618"
       id="path4155"
       inkscape:connector-curvature="0"
       sodipodi:nodetypes="cccc" />
    <path
       style="fill:none;fill-rule:evenodd;stroke:#000000;stroke-width:0.887116px;stroke-linecap:butt;stroke-linejoin:miter;stroke-opacity:1"
       d="m 277.08119,123.77316 c -28.98968,42.61325 19.05932,53.55739 46.45361,23.89562"
       id="path4157"
       inkscape:connector-curvature="0"
       sodipodi:nodetypes="cc" />
    <path
       style="fill:none;fill-rule:evenodd;stroke:#000000;stroke-width:0.887116px;stroke-linecap:butt;stroke-linejoin:miter;stroke-opacity:1"
       d="m 285.00186,129.15924 c -9.50482,21.54424 4.43558,29.06889 27.24714,14.0196"
       id="path4159"
       inkscape:connector-curvature="0"
       sodipodi:nodetypes="cc" />
    <path
       style="fill:#077f9a;fill-opacity:1;fill-rule:evenodd;stroke:#000000;stroke-width:0.887116px;stroke-linecap:butt;stroke-linejoin:miter;stroke-opacity:1"
       d="m 334.32916,130.45537 c 4.76064,-7.78507 11.08264,-28.53368 11.08264,-28.53368 1.62422,-5.60076 -1.43835,-5.906327 -2.78254,-1.03365 0,0 -7.76363,20.53582 -13.70044,27.20073"
       id="path4161"
       inkscape:connector-curvature="0"
       sodipodi:nodetypes="cccc" />
    <path
       style="fill:#077f9a;fill-opacity:1;fill-rule:evenodd;stroke:#000000;stroke-width:0.887116px;stroke-linecap:butt;stroke-linejoin:miter;stroke-opacity:1"
       d="m 315.77832,156.83117 c 1.90426,35.95692 -23.82083,39.63984 -64.81843,-3.038 0,0 -6.46408,-7.14413 1.71304,-2.66352 8.4759,5.16565 45.67137,30.95493 49.71765,12.01049 0,0 9.17485,-3.87554 13.38774,-6.30897 z"
       id="path4165"
       inkscape:connector-curvature="0"
       sodipodi:nodetypes="cccsc" />
    <path
       style="fill:#077f9a;fill-opacity:1;fill-rule:evenodd;stroke:#000000;stroke-width:0.887116px;stroke-linecap:butt;stroke-linejoin:miter;stroke-opacity:1"
       d="m 266.34442,187.86271 c 7.53755,-14.16112 13.61618,-22.60205 13.37856,-23.59213 -1.46532,-0.35643 -5.0128,-1.9956 -6.00078,-3.0148 -1.00814,0.95213 -10.29581,19.94999 -10.18379,26.22285 0.24888,3.5146 2.14518,1.5321 2.80601,0.38408 z"
       id="path4167"
       inkscape:connector-curvature="0"
       sodipodi:nodetypes="ccccc" />
    <path
       style="fill:none;fill-rule:evenodd;stroke:#000000;stroke-width:0.887116px;stroke-linecap:butt;stroke-linejoin:miter;stroke-opacity:1"
       d="m 291.65425,136.34363 c 0,0 -6.52503,7.26741 -8.23148,10.55662"
       id="path4169"
       inkscape:connector-curvature="0"
       sodipodi:nodetypes="cc" />
    <path
       style="fill:none;fill-rule:evenodd;stroke:#000000;stroke-width:0.887116px;stroke-linecap:butt;stroke-linejoin:miter;stroke-opacity:1"
       d="m 299.27362,147.1866 c 0,0 -6.28082,1.30109 -8.88764,3.70213"
       id="path4171"
       inkscape:connector-curvature="0"
       sodipodi:nodetypes="cc" />
    <path
       style="fill:#077f9a;fill-opacity:1;stroke:#000000;stroke-width:0.112015;stroke-linejoin:round;stroke-miterlimit:4;stroke-dasharray:none;stroke-opacity:1"
       d="m 286.05967,163.78639 c -9.29901,-0.82032 -15.44047,-5.45844 -17.09617,-12.91128 -0.36637,-1.64917 -0.41967,-5.03145 -0.11248,-7.13836 0.56079,-3.84619 1.95782,-7.91924 4.20785,-12.26803 1.46236,-2.82639 4.01148,-6.99586 4.27816,-6.99756 0.25155,-0.002 4.33171,2.903 6.16732,4.39045 l 0.80514,0.65243 -0.3368,0.81061 c -0.89817,2.16171 -1.7762,5.10802 -2.17771,7.30749 -0.28808,1.57811 -0.34112,4.49481 -0.10716,5.89395 1.02995,6.15948 5.95464,8.9754 13.47881,7.70712 4.79013,-0.80743 10.55974,-3.26939 16.28231,-6.94785 1.35943,-0.87384 2.38538,-1.2299 4.15144,-1.44076 2.36405,-0.28227 4.24983,0.31491 5.60012,1.77338 0.66738,0.72085 1.01296,1.27608 1.42116,2.28331 0.24035,0.5931 0.24729,0.66484 0.0879,0.90811 -0.24933,0.38052 -3.29621,3.2543 -4.61903,4.3566 -7.66952,6.39102 -16.22613,10.27983 -25.19792,11.45195 -1.63192,0.2132 -5.30041,0.30364 -6.83293,0.16844 z"
       id="path4173"
       inkscape:connector-curvature="0" />
    <path
       style="fill:#077f9a;fill-opacity:1;stroke:#000000;stroke-width:0.112015;stroke-linejoin:round;stroke-miterlimit:4;stroke-dasharray:none;stroke-opacity:1"
       d="m 289.07601,150.27361 c -1.94784,-0.41649 -3.79128,-1.52898 -4.77874,-2.8839 l -0.31883,-0.43747 0.29668,-0.51466 c 0.87962,-1.52592 3.9688,-5.45918 6.85023,-8.722 l 0.71914,-0.81431 0.95343,1.20289 c 1.26712,1.59864 2.32535,3.13352 3.3939,4.92258 0.86546,1.44905 2.01344,3.63492 2.01344,3.8338 0,0.0559 -0.18032,0.13542 -0.40071,0.17676 -0.86406,0.16211 -3.82022,1.20113 -4.94213,1.73706 -0.65073,0.31084 -1.55294,0.81717 -2.0049,1.12517 -0.45196,0.30801 -0.86128,0.5559 -0.90958,0.55087 -0.0483,-0.005 -0.44067,-0.0845 -0.87193,-0.17679 z"
       id="path4175"
       inkscape:connector-curvature="0" />
    <path
       style="fill:#077f9a;fill-opacity:1;stroke:#000000;stroke-width:0.0792068;stroke-linejoin:round;stroke-miterlimit:4;stroke-dasharray:none;stroke-opacity:1"
       d="m 299.75073,147.81342 c -4.14451,-9.76832 -12.45502,-18.61045 -23.96462,-25.49764 -6.51408,-3.89793 -14.34918,-7.37479 -21.05283,-9.34228 -0.91854,-0.26959 -1.42731,-0.46948 -1.94517,-0.76425 -1.54613,-0.88005 -2.50659,-1.87783 -2.50659,-2.60397 0,-0.35128 0.46661,-0.77922 1.1463,-1.05132 0.57628,-0.2307 2.1153,-0.52448 2.74757,-0.52448 0.68673,0 4.72338,0.94455 7.82874,1.83187 15.82768,4.52257 29.90731,12.2135 39.90156,21.79604 2.15406,2.06533 3.51119,3.55016 5.76115,6.30323 1.83989,2.25129 3.8291,4.88706 3.83912,5.08693 0.004,0.0692 -2.20471,1.43575 -3.6015,2.22877 -2.09733,1.19077 -4.89616,2.54158 -6.77218,3.26851 -0.37029,0.14348 -0.72843,0.28319 -0.79587,0.31045 -0.0963,0.0389 -0.22209,-0.18493 -0.58568,-1.04186 z"
       id="path4179"
       inkscape:connector-curvature="0" />
  </g>
</svg>
