<?xml version="1.0" encoding="UTF-8" standalone="no"?>
<!-- Created with Inkscape (http://www.inkscape.org/) -->

<svg
   width="49.180508mm"
   height="55.347057mm"
   viewBox="0 0 49.180508 55.347057"
   version="1.1"
   id="svg4099"
   inkscape:version="1.2 (dc2aedaf03, 2022-05-15)"
   sodipodi:docname="Keleres.svg"
   xmlns:inkscape="http://www.inkscape.org/namespaces/inkscape"
   xmlns:sodipodi="http://sodipodi.sourceforge.net/DTD/sodipodi-0.dtd"
   xmlns="http://www.w3.org/2000/svg"
   xmlns:svg="http://www.w3.org/2000/svg">
  <sodipodi:namedview
     id="namedview4101"
     pagecolor="#ffffff"
     bordercolor="#000000"
     borderopacity="0.25"
     inkscape:showpageshadow="2"
     inkscape:pageopacity="0.0"
     inkscape:pagecheckerboard="0"
     inkscape:deskcolor="#d1d1d1"
     inkscape:document-units="mm"
     showgrid="false"
     inkscape:zoom="0.78751403"
     inkscape:cx="-21.586917"
     inkscape:cy="466.02344"
     inkscape:window-width="1920"
     inkscape:window-height="1129"
     inkscape:window-x="-8"
     inkscape:window-y="-8"
     inkscape:window-maximized="1"
     inkscape:current-layer="layer1" />
  <defs
     id="defs4096">
    <clipPath
       clipPathUnits="userSpaceOnUse"
       id="clipPath3876">
      <path
         d="M 0,1062.992 H 1228.045 V 0 H 0 Z"
         id="path3874" />
    </clipPath>
    <clipPath
       clipPathUnits="userSpaceOnUse"
       id="clipPath3850">
      <path
         d="m 511.556,945.422 c 0,-10.522 8.53,-19.051 19.051,-19.051 v 0 c 10.522,0 19.051,8.529 19.051,19.051 v 0 c 0,10.521 -8.529,19.051 -19.051,19.051 v 0 c -10.521,0 -19.051,-8.53 -19.051,-19.051"
         id="path3848" />
    </clipPath>
    <radialGradient
       fx="0"
       fy="0"
       cx="0"
       cy="0"
       r="1"
       gradientUnits="userSpaceOnUse"
       gradientTransform="matrix(-17.593502,-22.230993,-22.230993,17.593502,536.39209,954.01245)"
       spreadMethod="pad"
       id="radialGradient3866">
      <stop
         style="stop-opacity:1;stop-color:#dd97d0"
         offset="0"
         id="stop3856" />
      <stop
         style="stop-opacity:1;stop-color:#881b87"
         offset="0.27857221"
         id="stop3858" />
      <stop
         style="stop-opacity:1;stop-color:#881b87"
         offset="0.329303"
         id="stop3860" />
      <stop
         style="stop-opacity:1;stop-color:#881b87"
         offset="0.62140668"
         id="stop3862" />
      <stop
         style="stop-opacity:1;stop-color:#2b1a40"
         offset="1"
         id="stop3864" />
    </radialGradient>
    <clipPath
       clipPathUnits="userSpaceOnUse"
       id="clipPath3876-0">
      <path
         d="M 0,1062.992 H 1228.045 V 0 H 0 Z"
         id="path3874-7" />
    </clipPath>
  </defs>
  <g
     inkscape:label="Ebene 1"
     inkscape:groupmode="layer"
     id="layer1"
     transform="translate(-42.108902,-25.182407)">
    <g
       id="g3844"
       transform="matrix(0.35277777,0,0,-0.35277777,-120.48711,384.70751)">
      <g
         id="g3846"
         clip-path="url(#clipPath3850)">
        <g
           id="g3852">
          <g
             id="g3854">
            <path
               d="m 511.556,945.422 c 0,-10.522 8.53,-19.051 19.051,-19.051 v 0 c 10.522,0 19.051,8.529 19.051,19.051 v 0 c 0,10.521 -8.529,19.051 -19.051,19.051 v 0 c -10.521,0 -19.051,-8.53 -19.051,-19.051"
               style="fill:url(#radialGradient3866);stroke:none"
               id="path3868" />
          </g>
        </g>
      </g>
    </g>
    <g
       id="g3870"
       transform="matrix(0.35277777,0,0,-0.35277777,-120.48711,384.70751)">
      <g
         id="g3872"
         clip-path="url(#clipPath3876-0)">
        <g
           id="g3878"
           transform="translate(527.6187,981.8193)">
          <path
             d="m 0,0 v 37.307 c 0,0 -0.586,-0.816 -8.169,-9.781 V 17.94 c 0,-6.007 0.161,-7.129 -9.437,-12.038 -8.81,-4.505 -8.951,-19.001 -8.951,-19.001 z"
             style="fill:#b5aba0;fill-opacity:1;fill-rule:nonzero;stroke:none"
             id="path3880" />
        </g>
        <g
           id="g3882"
           transform="translate(533.5948,981.8193)">
          <path
             d="m 0,0 v 37.307 c 0,0 0.586,-0.816 8.169,-9.781 V 17.94 c 0,-6.007 -0.161,-7.129 9.437,-12.038 8.81,-4.505 8.798,-17.29 8.798,-17.29 z"
             style="fill:#b5aba0;fill-opacity:1;fill-rule:nonzero;stroke:none"
             id="path3884" />
        </g>
        <g
           id="g3886"
           transform="translate(530.6129,916.736)">
          <path
             d="m 0,0 h -0.008 0.077 c 15.843,0 28.685,14.011 28.685,31.285 0,16.205 -11.296,29.531 -25.769,31.124 v 2.054 C 12.003,62.501 38.741,54.876 37.656,33.717 37.187,24.576 32.178,27.053 31.224,19.913 29.616,7.871 12.288,-1.708 10.595,-13.688 9.456,-21.729 12.511,-40.426 12.511,-40.426 8.048,-40.719 0.862,-53.099 0.069,-54.499 h -0.077 c -0.792,1.4 -7.979,13.78 -12.441,14.073 0,0 1.107,16.514 1.359,24.631 0.359,11.532 -19.21,24.95 -20.818,36.991 -0.955,7.141 -5.217,3.38 -5.687,12.521 -1.077,21.105 25.523,28.746 34.602,30.731 V 62.401 C -14.333,62.57 -28.884,43.899 -28.692,31.285 -28.429,14.013 -15.85,0 -0.008,0"
             style="fill:#b5aba0;fill-opacity:1;fill-rule:nonzero;stroke:none"
             id="path3888" />
        </g>
        <g
           id="g3890"
           transform="translate(532.4903,986.4545)">
          <path
             d="m 0,0 c 9.903,-0.423 19.651,-4.047 26.753,-10.872 l 0.123,0.008 C 19.744,-4.009 9.949,-0.392 0,0 m -30.647,-10.864 c -0.007,0 -0.007,0 -0.015,-0.008 l 0.062,0.008 z"
             style="fill:#f5d72e;fill-opacity:1;fill-rule:nonzero;stroke:none"
             id="path3892" />
        </g>
        <g
           id="g3894"
           transform="translate(570.7389,929.3624)">
          <path
             d="M 0,0 C 1.154,3.162 1.939,6.494 2.301,9.956 L 15.873,23.529 C 16.458,19.951 16.681,16.173 16.543,12.48 12.896,6.255 6.971,1.662 0,0 m -1.67,29.162 c -0.015,0.046 -0.03,0.092 -0.054,0.138 l 0.101,-0.031 c 0.3,0.639 7.64,16.389 8.156,17.49 4.508,-6.51 7.694,-14.012 9.148,-22.099 -0.885,0.239 -16.927,4.509 -17.304,4.609 z m -76.928,0 -0.046,0.107 c -0.369,-0.1 -16.42,-4.37 -17.305,-4.609 1.455,8.087 4.64,15.589 9.149,22.099 0.516,-1.101 7.856,-16.851 8.156,-17.49 l 0.1,0.031 c -0.023,-0.046 -0.038,-0.092 -0.054,-0.138 M -96.81,12.48 c -0.139,3.693 0.092,7.471 0.669,11.049 L -82.568,9.956 C -82.206,6.494 -81.422,3.162 -80.267,0 -87.239,1.662 -93.163,6.255 -96.81,12.48 m 67.835,57.696 c 14.244,-2.85 26.58,-11.051 34.8,-22.417 l -17.197,-1.531 -0.123,-0.008 c -7.102,6.825 -16.851,10.449 -26.754,10.872 -1.248,0.055 -2.521,0.055 -3.77,0 -9.902,-0.423 -19.636,-4.039 -26.738,-10.857 -0.007,-0.007 -0.007,-0.007 -0.015,-0.015 l -0.077,0.008 -0.062,-0.008 c 0.008,0.008 0.008,0.008 0.016,0.008 l -17.197,1.531 c 8.22,11.367 20.558,19.568 34.803,22.417 v 2.807 c -37.9,-6.527 -60.341,-51.871 -41.489,-85.848 6.532,1.477 14.034,1.285 20.351,-0.477 4.417,-5.124 10.026,-9.141 16.381,-11.695 0.277,-0.116 0.562,-0.231 0.854,-0.339 -0.061,0.4 -0.115,0.816 -0.223,1.185 -0.992,3.339 -2.977,7.286 -6.709,10.941 -21.029,20.56 -15.289,55.284 15.966,61.978 0.046,0.008 0.1,0.023 0.146,0.031 l -1.039,-7.063 h 13.835 l -1.039,7.063 c 4.701,-0.992 8.825,-2.616 12.372,-4.732 20.144,-11.988 21.652,-39.772 3.747,-57.277 -3.739,-3.655 -5.724,-7.602 -6.717,-10.941 -0.107,-0.369 -0.161,-0.785 -0.223,-1.185 0.292,0.108 0.577,0.223 0.854,0.339 6.363,2.554 11.965,6.571 16.381,11.695 6.325,1.762 13.827,1.954 20.352,0.477 18.851,33.976 -3.581,79.319 -41.486,85.848 z"
             style="fill:#f5d72e;fill-opacity:1;fill-rule:nonzero;stroke:none"
             id="path3896" />
        </g>
        <g
           id="g3898"
           transform="translate(524.5805,978.0908)">
          <path
             d="m 0,0 -1.031,-7.033 h 0.138 L 0.146,0.031 C 0.1,0.023 0.046,0.008 0,0 m -22.737,-2.501 c -0.007,0 -0.007,0 -0.015,-0.007 l 0.061,0.007 0.093,0.008 C -15.496,4.324 -5.763,7.941 4.14,8.364 -5.809,7.971 -15.604,4.355 -22.737,-2.501"
             style="fill:#f5d72e;fill-opacity:1;fill-rule:nonzero;stroke:none"
             id="path3900" />
        </g>
        <g
           id="g3902"
           transform="translate(594.7322,957.902)">
          <path
             d="m 0,0 c 0.166,-9.013 3.66,-26.54 -11.229,-50.007 -8.065,-12.71 -16.752,-19.527 -28.051,-20.453 -5.347,-0.439 -6.428,7.1 -7.494,13.411 -1.739,-8.035 -1.388,-14.229 -0.307,-23.755 C 10.802,-65.961 8.932,-1.386 2.38,7.17 L 0,0"
             style="fill:#b5aba0;fill-opacity:1;fill-rule:nonzero;stroke:none"
             id="path3904" />
        </g>
        <g
           id="g3906"
           transform="translate(466.4813,957.902)">
          <path
             d="m 0,0 c -0.166,-9.013 -3.66,-26.54 11.229,-50.007 8.065,-12.71 16.752,-19.527 28.051,-20.453 5.347,-0.439 6.428,7.1 7.494,13.411 1.739,-8.035 1.388,-14.229 0.307,-23.755 C -10.802,-65.961 -8.932,-1.386 -2.38,7.17 L 0,0"
             style="fill:#b5aba0;fill-opacity:1;fill-rule:nonzero;stroke:none"
             id="path3908" />
        </g>
      </g>
    </g>
  </g>
</svg>
