<?xml version="1.0" encoding="UTF-8" standalone="no"?>
<!-- Created with Inkscape (http://www.inkscape.org/) -->

<svg
   width="43.393429mm"
   height="45.849823mm"
   viewBox="0 0 43.393429 45.849823"
   version="1.1"
   id="svg10101"
   inkscape:version="1.2 (dc2aedaf03, 2022-05-15)"
   sodipodi:docname="nomads.svg"
   xmlns:inkscape="http://www.inkscape.org/namespaces/inkscape"
   xmlns:sodipodi="http://sodipodi.sourceforge.net/DTD/sodipodi-0.dtd"
   xmlns="http://www.w3.org/2000/svg"
   xmlns:svg="http://www.w3.org/2000/svg">
  <sodipodi:namedview
     id="namedview10103"
     pagecolor="#ffffff"
     bordercolor="#000000"
     borderopacity="0.25"
     inkscape:showpageshadow="2"
     inkscape:pageopacity="0.0"
     inkscape:pagecheckerboard="0"
     inkscape:deskcolor="#d1d1d1"
     inkscape:document-units="mm"
     showgrid="false"
     inkscape:zoom="1.1893044"
     inkscape:cx="212.72939"
     inkscape:cy="193.39035"
     inkscape:window-width="1920"
     inkscape:window-height="1129"
     inkscape:window-x="-8"
     inkscape:window-y="-8"
     inkscape:window-maximized="1"
     inkscape:current-layer="layer1" />
  <defs
     id="defs10098">
    <clipPath
       clipPathUnits="userSpaceOnUse"
       id="clipPath2890">
      <path
         d="m 1162.528,130.14 c 0,-4.522 3.665,-8.187 8.187,-8.187 v 0 c 4.521,0 8.187,3.665 8.187,8.187 v 0 c 0,4.521 -3.666,8.186 -8.187,8.186 v 0 c -4.522,0 -8.187,-3.665 -8.187,-8.186"
         id="path2888" />
    </clipPath>
    <radialGradient
       fx="0"
       fy="0"
       cx="0"
       cy="0"
       r="1"
       gradientUnits="userSpaceOnUse"
       gradientTransform="matrix(9.5498085,-8.6069469,-8.6069469,-9.5498085,1164.3551,134.77945)"
       spreadMethod="pad"
       id="radialGradient2908">
      <stop
         style="stop-opacity:1;stop-color:#b34c94"
         offset="0"
         id="stop2896" />
      <stop
         style="stop-opacity:1;stop-color:#b34c94"
         offset="0.00000171"
         id="stop2898" />
      <stop
         style="stop-opacity:1;stop-color:#924c84"
         offset="0.35422161"
         id="stop2900" />
      <stop
         style="stop-opacity:1;stop-color:#924c84"
         offset="0.514035"
         id="stop2902" />
      <stop
         style="stop-opacity:1;stop-color:#924c84"
         offset="0.67962013"
         id="stop2904" />
      <stop
         style="stop-opacity:1;stop-color:#5d4d66"
         offset="1"
         id="stop2906" />
    </radialGradient>
    <clipPath
       clipPathUnits="userSpaceOnUse"
       id="clipPath2918">
      <path
         d="m 1113.472,180.495 c 0,-2.856 2.315,-5.171 5.17,-5.171 v 0 c 2.856,0 5.172,2.315 5.172,5.171 v 0 c 0,2.856 -2.316,5.171 -5.172,5.171 v 0 c -2.855,0 -5.17,-2.315 -5.17,-5.171"
         id="path2916" />
    </clipPath>
    <radialGradient
       fx="0"
       fy="0"
       cx="0"
       cy="0"
       r="1"
       gradientUnits="userSpaceOnUse"
       gradientTransform="matrix(6.0319257,-5.436388,-5.436388,-6.0319257,1114.6256,183.42574)"
       spreadMethod="pad"
       id="radialGradient2936">
      <stop
         style="stop-opacity:1;stop-color:#b34c94"
         offset="0"
         id="stop2924" />
      <stop
         style="stop-opacity:1;stop-color:#b34c94"
         offset="0.00000171"
         id="stop2926" />
      <stop
         style="stop-opacity:1;stop-color:#924c84"
         offset="0.35422161"
         id="stop2928" />
      <stop
         style="stop-opacity:1;stop-color:#924c84"
         offset="0.514035"
         id="stop2930" />
      <stop
         style="stop-opacity:1;stop-color:#924c84"
         offset="0.67962013"
         id="stop2932" />
      <stop
         style="stop-opacity:1;stop-color:#5d4d66"
         offset="1"
         id="stop2934" />
    </radialGradient>
    <clipPath
       clipPathUnits="userSpaceOnUse"
       id="clipPath2946">
      <path
         d="m 1061.584,105.439 c 0,-5.72 4.637,-10.357 10.357,-10.357 v 0 c 5.72,0 10.357,4.637 10.357,10.357 v 0 c 0,5.72 -4.637,10.357 -10.357,10.357 v 0 c -5.72,0 -10.357,-4.637 -10.357,-10.357"
         id="path2944" />
    </clipPath>
    <radialGradient
       fx="0"
       fy="0"
       cx="0"
       cy="0"
       r="1"
       gradientUnits="userSpaceOnUse"
       gradientTransform="matrix(12.081153,-10.88837,-10.88837,-12.081153,1063.8959,111.30892)"
       spreadMethod="pad"
       id="radialGradient2964">
      <stop
         style="stop-opacity:1;stop-color:#b34c94"
         offset="0"
         id="stop2952" />
      <stop
         style="stop-opacity:1;stop-color:#b34c94"
         offset="0.00000171"
         id="stop2954" />
      <stop
         style="stop-opacity:1;stop-color:#924c84"
         offset="0.35422161"
         id="stop2956" />
      <stop
         style="stop-opacity:1;stop-color:#924c84"
         offset="0.514035"
         id="stop2958" />
      <stop
         style="stop-opacity:1;stop-color:#924c84"
         offset="0.67962013"
         id="stop2960" />
      <stop
         style="stop-opacity:1;stop-color:#5d4d66"
         offset="1"
         id="stop2962" />
    </radialGradient>
    <clipPath
       clipPathUnits="userSpaceOnUse"
       id="clipPath2974">
      <path
         d="m 1103.797,77.013 c 0,-8.665 7.025,-15.69 15.69,-15.69 v 0 c 8.666,0 15.69,7.025 15.69,15.69 v 0 c 0,8.666 -7.024,15.691 -15.69,15.691 v 0 c -8.665,0 -15.69,-7.025 -15.69,-15.691"
         id="path2972" />
    </clipPath>
    <radialGradient
       fx="0"
       fy="0"
       cx="0"
       cy="0"
       r="1"
       gradientUnits="userSpaceOnUse"
       gradientTransform="matrix(18.302441,-16.495424,-16.495424,-18.302441,1107.2988,85.905785)"
       spreadMethod="pad"
       id="radialGradient2992">
      <stop
         style="stop-opacity:1;stop-color:#b34c94"
         offset="0"
         id="stop2980" />
      <stop
         style="stop-opacity:1;stop-color:#b34c94"
         offset="0.00000171"
         id="stop2982" />
      <stop
         style="stop-opacity:1;stop-color:#924c84"
         offset="0.35422161"
         id="stop2984" />
      <stop
         style="stop-opacity:1;stop-color:#924c84"
         offset="0.514035"
         id="stop2986" />
      <stop
         style="stop-opacity:1;stop-color:#924c84"
         offset="0.67962013"
         id="stop2988" />
      <stop
         style="stop-opacity:1;stop-color:#5d4d66"
         offset="1"
         id="stop2990" />
    </radialGradient>
    <clipPath
       clipPathUnits="userSpaceOnUse"
       id="clipPath3002">
      <path
         d="m 1149.989,165.833 c 0,-3.13 2.537,-5.668 5.668,-5.668 v 0 c 3.131,0 5.669,2.538 5.669,5.668 v 0 c 0,3.131 -2.538,5.669 -5.669,5.669 v 0 c -3.131,0 -5.668,-2.538 -5.668,-5.669"
         id="path3000" />
    </clipPath>
    <radialGradient
       fx="0"
       fy="0"
       cx="0"
       cy="0"
       r="1"
       gradientUnits="userSpaceOnUse"
       gradientTransform="matrix(5.7123628,-5.148376,-5.148376,-5.7123628,1151.8877,168.465)"
       spreadMethod="pad"
       id="radialGradient3020">
      <stop
         style="stop-opacity:1;stop-color:#2c768f"
         offset="0"
         id="stop3008" />
      <stop
         style="stop-opacity:1;stop-color:#2c768f"
         offset="0.00000128"
         id="stop3010" />
      <stop
         style="stop-opacity:1;stop-color:#41728b"
         offset="0.35422079"
         id="stop3012" />
      <stop
         style="stop-opacity:1;stop-color:#41728b"
         offset="0.514034"
         id="stop3014" />
      <stop
         style="stop-opacity:1;stop-color:#41728b"
         offset="0.67961947"
         id="stop3016" />
      <stop
         style="stop-opacity:1;stop-color:#334a5e"
         offset="1"
         id="stop3018" />
    </radialGradient>
    <clipPath
       clipPathUnits="userSpaceOnUse"
       id="clipPath3030">
      <path
         d="M 0,1062.992 H 1228.045 V 0 H 0 Z"
         id="path3028" />
    </clipPath>
    <clipPath
       clipPathUnits="userSpaceOnUse"
       id="clipPath3046">
      <path
         d="m 1087.868,134.749 c 0,-17.161 13.912,-31.073 31.073,-31.073 v 0 c 17.162,0 31.074,13.912 31.074,31.073 v 0 c 0,17.161 -13.912,31.073 -31.074,31.073 v 0 c -17.161,0 -31.073,-13.912 -31.073,-31.073"
         id="path3044" />
    </clipPath>
    <radialGradient
       fx="0"
       fy="0"
       cx="0"
       cy="0"
       r="1"
       gradientUnits="userSpaceOnUse"
       gradientTransform="matrix(31.314915,-28.223165,-28.223165,-31.314915,1098.2777,149.17441)"
       spreadMethod="pad"
       id="radialGradient3064">
      <stop
         style="stop-opacity:1;stop-color:#2c768f"
         offset="0"
         id="stop3052" />
      <stop
         style="stop-opacity:1;stop-color:#2c768f"
         offset="0.00000128"
         id="stop3054" />
      <stop
         style="stop-opacity:1;stop-color:#41728b"
         offset="0.35422079"
         id="stop3056" />
      <stop
         style="stop-opacity:1;stop-color:#41728b"
         offset="0.514034"
         id="stop3058" />
      <stop
         style="stop-opacity:1;stop-color:#41728b"
         offset="0.67961947"
         id="stop3060" />
      <stop
         style="stop-opacity:1;stop-color:#334a5e"
         offset="1"
         id="stop3062" />
    </radialGradient>
    <clipPath
       clipPathUnits="userSpaceOnUse"
       id="clipPath3074">
      <path
         d="M 0,1062.992 H 1228.045 V 0 H 0 Z"
         id="path3072" />
    </clipPath>
  </defs>
  <g
     inkscape:label="Ebene 1"
     inkscape:groupmode="layer"
     id="layer1"
     transform="translate(-82.756677,-125.57509)">
    <g
       id="g2884"
       transform="matrix(0.35277777,0,0,-0.35277777,-290.76746,192.16761)">
      <g
         id="g2886"
         clip-path="url(#clipPath2890)">
        <g
           id="g2892">
          <g
             id="g2894">
            <path
               d="m 1162.528,130.14 c 0,-4.522 3.665,-8.187 8.187,-8.187 v 0 c 4.521,0 8.187,3.665 8.187,8.187 v 0 c 0,4.521 -3.666,8.186 -8.187,8.186 v 0 c -4.522,0 -8.187,-3.665 -8.187,-8.186"
               style="fill:url(#radialGradient2908);stroke:none"
               id="path2910" />
          </g>
        </g>
      </g>
    </g>
    <g
       id="g2912"
       transform="matrix(0.35277777,0,0,-0.35277777,-290.76746,192.16761)">
      <g
         id="g2914"
         clip-path="url(#clipPath2918)">
        <g
           id="g2920">
          <g
             id="g2922">
            <path
               d="m 1113.472,180.495 c 0,-2.856 2.315,-5.171 5.17,-5.171 v 0 c 2.856,0 5.172,2.315 5.172,5.171 v 0 c 0,2.856 -2.316,5.171 -5.172,5.171 v 0 c -2.855,0 -5.17,-2.315 -5.17,-5.171"
               style="fill:url(#radialGradient2936);stroke:none"
               id="path2938" />
          </g>
        </g>
      </g>
    </g>
    <g
       id="g2940"
       transform="matrix(0.35277777,0,0,-0.35277777,-290.76746,192.16761)">
      <g
         id="g2942"
         clip-path="url(#clipPath2946)">
        <g
           id="g2948">
          <g
             id="g2950">
            <path
               d="m 1061.584,105.439 c 0,-5.72 4.637,-10.357 10.357,-10.357 v 0 c 5.72,0 10.357,4.637 10.357,10.357 v 0 c 0,5.72 -4.637,10.357 -10.357,10.357 v 0 c -5.72,0 -10.357,-4.637 -10.357,-10.357"
               style="fill:url(#radialGradient2964);stroke:none"
               id="path2966" />
          </g>
        </g>
      </g>
    </g>
    <g
       id="g2968"
       transform="matrix(0.35277777,0,0,-0.35277777,-290.76746,192.16761)">
      <g
         id="g2970"
         clip-path="url(#clipPath2974)">
        <g
           id="g2976">
          <g
             id="g2978">
            <path
               d="m 1103.797,77.013 c 0,-8.665 7.025,-15.69 15.69,-15.69 v 0 c 8.666,0 15.69,7.025 15.69,15.69 v 0 c 0,8.666 -7.024,15.691 -15.69,15.691 v 0 c -8.665,0 -15.69,-7.025 -15.69,-15.691"
               style="fill:url(#radialGradient2992);stroke:none"
               id="path2994" />
          </g>
        </g>
      </g>
    </g>
    <g
       id="g2996"
       transform="matrix(0.35277777,0,0,-0.35277777,-290.76746,192.16761)">
      <g
         id="g2998"
         clip-path="url(#clipPath3002)">
        <g
           id="g3004">
          <g
             id="g3006">
            <path
               d="m 1149.989,165.833 c 0,-3.13 2.537,-5.668 5.668,-5.668 v 0 c 3.131,0 5.669,2.538 5.669,5.668 v 0 c 0,3.131 -2.538,5.669 -5.669,5.669 v 0 c -3.131,0 -5.668,-2.538 -5.668,-5.669"
               style="fill:url(#radialGradient3020);stroke:none"
               id="path3022" />
          </g>
        </g>
      </g>
    </g>
    <g
       id="g3024"
       transform="matrix(0.35277777,0,0,-0.35277777,-290.76746,192.16761)">
      <g
         id="g3026"
         clip-path="url(#clipPath3030)">
        <g
           id="g3032"
           transform="translate(1173.3341,122.9597)">
          <path
             d="m 0,0 c -0.81,-0.305 -1.693,-0.465 -2.615,-0.465 -0.233,0 -0.466,0.008 -0.69,0.032 -3.899,0.353 -6.963,3.626 -6.963,7.613 0,3.762 2.735,6.899 6.329,7.533 0.433,0.072 0.875,0.112 1.324,0.112 0.698,0 1.364,-0.096 2.005,-0.265 C 2.631,13.67 5.03,10.702 5.03,7.18 5.03,3.883 2.928,1.067 0,0 m -6.418,-17.424 -1.468,0.698 c -1.075,-2.271 -2.318,-4.445 -3.706,-6.506 -4.83,-7.22 -11.464,-13.141 -19.245,-17.112 -1.733,-0.89 -3.53,-1.684 -5.375,-2.366 -1.525,8.367 -8.873,14.737 -17.681,14.737 -8.801,0 -16.141,-6.362 -17.665,-14.729 -2.198,0.802 -4.324,1.773 -6.362,2.872 -4.54,2.438 -8.672,5.559 -12.25,9.217 -1.019,1.035 -1.997,2.118 -2.92,3.241 2.808,2.367 4.589,5.905 4.589,9.851 0,7.108 -5.784,12.892 -12.892,12.892 -0.826,0 -1.628,-0.08 -2.414,-0.232 -0.634,3.192 -0.963,6.498 -0.963,9.875 v 0.152 l -1.629,0.008 c 0.024,7.469 1.613,14.569 4.453,20.994 l 1.492,-0.657 c 1.797,4.083 4.123,7.877 6.883,11.311 6.105,7.605 14.344,13.421 23.802,16.526 2.398,0.794 4.869,1.404 7.404,1.837 1.003,-3.289 4.068,-5.68 7.669,-5.68 3.691,0 6.811,2.503 7.742,5.904 1.997,-0.264 3.947,-0.649 5.864,-1.147 l 0.409,1.581 c 6.129,-1.605 11.833,-4.276 16.887,-7.83 -1.187,-1.396 -1.909,-3.209 -1.909,-5.19 0,-4.429 3.602,-8.031 8.022,-8.031 1.524,0 2.944,0.426 4.155,1.164 0.955,-1.244 1.862,-2.535 2.696,-3.867 2.752,-4.356 4.861,-9.153 6.185,-14.256 -5.022,-0.946 -8.832,-5.366 -8.832,-10.653 0,-5.608 4.275,-10.228 9.739,-10.798 -0.161,-0.923 -0.345,-1.837 -0.554,-2.744 l 1.589,-0.361 c -0.851,-3.73 -2.11,-7.316 -3.715,-10.701 m -32.754,-29.658 c -0.578,-7.613 -6.956,-13.63 -14.721,-13.63 -7.758,0 -14.135,6.017 -14.713,13.63 -0.032,0.377 -0.048,0.754 -0.048,1.131 0,0.754 0.056,1.492 0.168,2.214 1.067,7.1 7.212,12.555 14.593,12.555 7.388,0 13.533,-5.455 14.6,-12.555 0.112,-0.722 0.169,-1.46 0.169,-2.214 0,-0.377 -0.016,-0.754 -0.048,-1.131 m -58.675,20.553 c -1.099,-0.434 -2.294,-0.674 -3.546,-0.674 -5.343,0 -9.683,4.34 -9.683,9.682 0,3.61 1.99,6.763 4.926,8.432 0.939,0.529 1.965,0.906 3.064,1.099 0.554,0.104 1.116,0.152 1.693,0.152 5.335,0 9.683,-4.348 9.683,-9.683 0,-2.92 -1.3,-5.543 -3.353,-7.316 -0.819,-0.714 -1.757,-1.291 -2.784,-1.692 m 38.531,85.396 c 0.569,2.014 2.422,3.49 4.62,3.49 2.15,0 3.972,-1.412 4.589,-3.354 0.153,-0.465 0.233,-0.954 0.233,-1.468 0,-0.625 -0.121,-1.227 -0.345,-1.781 -0.706,-1.78 -2.439,-3.04 -4.477,-3.04 -1.981,0 -3.682,1.203 -4.42,2.912 -0.256,0.586 -0.393,1.227 -0.393,1.909 0,0.466 0.064,0.907 0.193,1.332 m 37.207,-14.151 c 0.441,1.027 1.227,1.869 2.222,2.382 0.666,0.345 1.412,0.538 2.206,0.538 2.663,0 4.821,-2.158 4.821,-4.813 0,-0.73 -0.16,-1.412 -0.449,-2.03 -0.473,-1.011 -1.275,-1.829 -2.286,-2.318 -0.626,-0.305 -1.34,-0.474 -2.086,-0.474 -2.655,0 -4.813,2.166 -4.813,4.822 0,0.673 0.136,1.315 0.385,1.893 M -2.615,18.034 c -0.129,0 -0.265,0 -0.393,-0.008 -1.372,5.351 -3.562,10.381 -6.442,14.929 l 1.364,0.859 c -0.947,1.5 -1.966,2.96 -3.057,4.356 0.939,1.315 1.492,2.92 1.492,4.653 0,4.428 -3.602,8.022 -8.03,8.022 -1.853,0 -3.562,-0.634 -4.926,-1.693 -5.27,3.755 -11.239,6.586 -17.673,8.255 -2.109,0.545 -4.267,0.971 -6.465,1.259 -0.554,3.899 -3.907,6.9 -7.951,6.9 -4.115,0 -7.524,-3.129 -7.974,-7.14 -2.783,-0.449 -5.487,-1.131 -8.11,-1.99 l 0.505,-1.54 c -9.763,-3.209 -18.266,-9.209 -24.564,-17.055 l -1.267,1.011 c -2.936,-3.65 -5.407,-7.694 -7.325,-12.034 -2.928,-6.626 -4.564,-13.95 -4.588,-21.644 v -0.16 c 0,-3.73 0.377,-7.373 1.099,-10.894 -4.348,-2.07 -7.365,-6.506 -7.365,-11.641 0,-7.107 5.785,-12.891 12.892,-12.891 1.982,0 3.867,0.449 5.544,1.259 1.058,-1.299 2.182,-2.543 3.353,-3.738 l 1.155,1.131 c 3.698,-3.77 7.966,-6.987 12.651,-9.506 l -0.762,-1.42 c 2.423,-1.308 4.966,-2.439 7.589,-3.362 0.056,-9.867 8.094,-17.873 17.97,-17.873 9.883,0 17.921,8.006 17.977,17.873 2.255,0.795 4.437,1.733 6.547,2.808 l -0.73,1.444 c 8.03,4.1 14.881,10.205 19.871,17.657 l 1.339,-0.898 c 1.476,2.198 2.792,4.508 3.931,6.923 1.661,3.49 2.952,7.18 3.835,11.03 0.273,1.196 0.505,2.407 0.698,3.634 4.941,1.019 8.664,5.399 8.664,10.63 0,5.984 -4.87,10.854 -10.854,10.854"
             style="fill:#d3d2d2;fill-opacity:1;fill-rule:nonzero;stroke:none"
             id="path3034" />
        </g>
        <g
           id="g3036"
           transform="translate(1173.3341,122.9597)">
          <path
             d="m 0,0 c -0.81,-0.305 -1.693,-0.465 -2.615,-0.465 -0.233,0 -0.466,0.008 -0.69,0.032 -3.899,0.353 -6.963,3.626 -6.963,7.613 0,3.762 2.735,6.899 6.329,7.533 0.433,0.072 0.875,0.112 1.324,0.112 0.698,0 1.364,-0.096 2.005,-0.265 C 2.631,13.67 5.03,10.702 5.03,7.18 5.03,3.883 2.928,1.067 0,0 Z m -6.418,-17.424 -1.468,0.698 c -1.075,-2.271 -2.318,-4.445 -3.706,-6.506 -4.83,-7.22 -11.464,-13.141 -19.245,-17.112 -1.733,-0.89 -3.53,-1.684 -5.375,-2.366 -1.525,8.367 -8.873,14.737 -17.681,14.737 -8.801,0 -16.141,-6.362 -17.665,-14.729 -2.198,0.802 -4.324,1.773 -6.362,2.872 -4.54,2.438 -8.672,5.559 -12.25,9.217 -1.019,1.035 -1.997,2.118 -2.92,3.241 2.808,2.367 4.589,5.905 4.589,9.851 0,7.108 -5.784,12.892 -12.892,12.892 -0.826,0 -1.628,-0.08 -2.414,-0.232 -0.634,3.192 -0.963,6.498 -0.963,9.875 v 0.152 l -1.629,0.008 c 0.024,7.469 1.613,14.569 4.453,20.994 l 1.492,-0.657 c 1.797,4.083 4.123,7.877 6.883,11.311 6.105,7.605 14.344,13.421 23.802,16.526 2.398,0.794 4.869,1.404 7.404,1.837 1.003,-3.289 4.068,-5.68 7.669,-5.68 3.691,0 6.811,2.503 7.742,5.904 1.997,-0.264 3.947,-0.649 5.864,-1.147 l 0.409,1.581 c 6.129,-1.605 11.833,-4.276 16.887,-7.83 -1.187,-1.396 -1.909,-3.209 -1.909,-5.19 0,-4.429 3.602,-8.031 8.022,-8.031 1.524,0 2.944,0.426 4.155,1.164 0.955,-1.244 1.862,-2.535 2.696,-3.867 2.752,-4.356 4.861,-9.153 6.185,-14.256 -5.022,-0.946 -8.832,-5.366 -8.832,-10.653 0,-5.608 4.275,-10.228 9.739,-10.798 -0.161,-0.923 -0.345,-1.837 -0.554,-2.744 l 1.589,-0.361 c -0.851,-3.73 -2.11,-7.316 -3.715,-10.701 z m -32.754,-29.658 c -0.578,-7.613 -6.956,-13.63 -14.721,-13.63 -7.758,0 -14.135,6.017 -14.713,13.63 -0.032,0.377 -0.048,0.754 -0.048,1.131 0,0.754 0.056,1.492 0.168,2.214 1.067,7.1 7.212,12.555 14.593,12.555 7.388,0 13.533,-5.455 14.6,-12.555 0.112,-0.722 0.169,-1.46 0.169,-2.214 0,-0.377 -0.016,-0.754 -0.048,-1.131 z m -58.675,20.553 c -1.099,-0.434 -2.294,-0.674 -3.546,-0.674 -5.343,0 -9.683,4.34 -9.683,9.682 0,3.61 1.99,6.763 4.926,8.432 0.939,0.529 1.965,0.906 3.064,1.099 0.554,0.104 1.116,0.152 1.693,0.152 5.335,0 9.683,-4.348 9.683,-9.683 0,-2.92 -1.3,-5.543 -3.353,-7.316 -0.819,-0.714 -1.757,-1.291 -2.784,-1.692 z m 38.531,85.396 c 0.569,2.014 2.422,3.49 4.62,3.49 2.15,0 3.972,-1.412 4.589,-3.354 0.153,-0.465 0.233,-0.954 0.233,-1.468 0,-0.625 -0.121,-1.227 -0.345,-1.781 -0.706,-1.78 -2.439,-3.04 -4.477,-3.04 -1.981,0 -3.682,1.203 -4.42,2.912 -0.256,0.586 -0.393,1.227 -0.393,1.909 0,0.466 0.064,0.907 0.193,1.332 z m 37.207,-14.151 c 0.441,1.027 1.227,1.869 2.222,2.382 0.666,0.345 1.412,0.538 2.206,0.538 2.663,0 4.821,-2.158 4.821,-4.813 0,-0.73 -0.16,-1.412 -0.449,-2.03 -0.473,-1.011 -1.275,-1.829 -2.286,-2.318 -0.626,-0.305 -1.34,-0.474 -2.086,-0.474 -2.655,0 -4.813,2.166 -4.813,4.822 0,0.673 0.136,1.315 0.385,1.893 z M -2.615,18.034 c -0.129,0 -0.265,0 -0.393,-0.008 -1.372,5.351 -3.562,10.381 -6.442,14.929 l 1.364,0.859 c -0.947,1.5 -1.966,2.96 -3.057,4.356 0.939,1.315 1.492,2.92 1.492,4.653 0,4.428 -3.602,8.022 -8.03,8.022 -1.853,0 -3.562,-0.634 -4.926,-1.693 -5.27,3.755 -11.239,6.586 -17.673,8.255 -2.109,0.545 -4.267,0.971 -6.465,1.259 -0.554,3.899 -3.907,6.9 -7.951,6.9 -4.115,0 -7.524,-3.129 -7.974,-7.14 -2.783,-0.449 -5.487,-1.131 -8.11,-1.99 l 0.505,-1.54 c -9.763,-3.209 -18.266,-9.209 -24.564,-17.055 l -1.267,1.011 c -2.936,-3.65 -5.407,-7.694 -7.325,-12.034 -2.928,-6.626 -4.564,-13.95 -4.588,-21.644 v -0.16 c 0,-3.73 0.377,-7.373 1.099,-10.894 -4.348,-2.07 -7.365,-6.506 -7.365,-11.641 0,-7.107 5.785,-12.891 12.892,-12.891 1.982,0 3.867,0.449 5.544,1.259 1.058,-1.299 2.182,-2.543 3.353,-3.738 l 1.155,1.131 c 3.698,-3.77 7.966,-6.987 12.651,-9.506 l -0.762,-1.42 c 2.423,-1.308 4.966,-2.439 7.589,-3.362 0.056,-9.867 8.094,-17.873 17.97,-17.873 9.883,0 17.921,8.006 17.977,17.873 2.255,0.795 4.437,1.733 6.547,2.808 l -0.73,1.444 c 8.03,4.1 14.881,10.205 19.871,17.657 l 1.339,-0.898 c 1.476,2.198 2.792,4.508 3.931,6.923 1.661,3.49 2.952,7.18 3.835,11.03 0.273,1.196 0.505,2.407 0.698,3.634 4.941,1.019 8.664,5.399 8.664,10.63 0,5.984 -4.87,10.854 -10.854,10.854 z"
             style="fill:none;stroke:#231f20;stroke-width:0.481;stroke-linecap:butt;stroke-linejoin:miter;stroke-miterlimit:10;stroke-dasharray:none;stroke-opacity:1"
             id="path3038" />
        </g>
      </g>
    </g>
    <g
       id="g3040"
       transform="matrix(0.35277777,0,0,-0.35277777,-290.76746,192.16761)">
      <g
         id="g3042"
         clip-path="url(#clipPath3046)">
        <g
           id="g3048">
          <g
             id="g3050">
            <path
               d="m 1087.868,134.749 c 0,-17.161 13.912,-31.073 31.073,-31.073 v 0 c 17.162,0 31.074,13.912 31.074,31.073 v 0 c 0,17.161 -13.912,31.073 -31.074,31.073 v 0 c -17.161,0 -31.073,-13.912 -31.073,-31.073"
               style="fill:url(#radialGradient3064);stroke:none"
               id="path3066" />
          </g>
        </g>
      </g>
    </g>
    <g
       id="g3068"
       transform="matrix(0.35277777,0,0,-0.35277777,-290.76746,192.16761)">
      <g
         id="g3070"
         clip-path="url(#clipPath3074)">
        <g
           id="g3076"
           transform="translate(1118.9438,107.2351)">
          <path
             d="m 0,0 c -15.195,0 -27.515,12.32 -27.515,27.515 0,15.195 12.32,27.516 27.515,27.516 15.195,0 27.516,-12.321 27.516,-27.516 C 27.516,12.32 15.195,0 0,0 m 0,58.598 c -17.172,0 -31.083,-13.911 -31.083,-31.083 0,-17.171 13.911,-31.083 31.083,-31.083 17.172,0 31.083,13.912 31.083,31.083 0,17.172 -13.911,31.083 -31.083,31.083"
             style="fill:#d3d2d2;fill-opacity:1;fill-rule:nonzero;stroke:none"
             id="path3078" />
        </g>
        <g
           id="g3080"
           transform="translate(1118.9438,107.2351)">
          <path
             d="m 0,0 c -15.195,0 -27.515,12.32 -27.515,27.515 0,15.195 12.32,27.516 27.515,27.516 15.195,0 27.516,-12.321 27.516,-27.516 C 27.516,12.32 15.195,0 0,0 Z m 0,58.598 c -17.172,0 -31.083,-13.911 -31.083,-31.083 0,-17.171 13.911,-31.083 31.083,-31.083 17.172,0 31.083,13.912 31.083,31.083 0,17.172 -13.911,31.083 -31.083,31.083 z"
             style="fill:none;stroke:#231f20;stroke-width:0.481;stroke-linecap:butt;stroke-linejoin:miter;stroke-miterlimit:10;stroke-dasharray:none;stroke-opacity:1"
             id="path3082" />
        </g>
      </g>
    </g>
  </g>
</svg>
